<svg width="57" height="56" viewBox="0 0 57 56" fill="none" xmlns="http://www.w3.org/2000/svg">
<path fill-rule="evenodd" clip-rule="evenodd" d="M14.9505 0C22.6784 0 28.9432 6.26801 28.9432 14V0H42.9359C50.6638 0 56.9286 6.26801 56.9286 14C56.9286 21.7319 50.6638 28 42.9359 28C50.6638 28 56.9286 34.2681 56.9286 42C56.9286 45.8392 55.3839 49.3175 52.8826 51.8468L52.8303 51.8995L52.7838 51.9457C50.2553 54.452 46.7763 56 42.9359 56C39.1216 56 35.6637 54.473 33.1396 51.9967C33.1068 51.9645 33.0741 51.932 33.0415 51.8995C33.0109 51.8689 32.9804 51.8381 32.95 51.8071C30.4717 49.2813 28.9432 45.8192 28.9432 42C28.9432 49.7319 22.6784 56 14.9505 56C7.22251 56 0.957764 49.7319 0.957764 42V28H14.9505C7.22251 28 0.957764 21.7319 0.957764 14C0.957764 6.26801 7.22251 0 14.9505 0ZM26.1446 14C26.1446 20.1856 21.1329 25.2 14.9505 25.2V2.8C21.1329 2.8 26.1446 7.81441 26.1446 14ZM54.1301 42C54.1301 35.8144 49.1183 30.8 42.9359 30.8C36.7535 30.8 31.7417 35.8144 31.7417 42H54.1301ZM3.75631 30.8V42C3.75631 48.1856 8.7681 53.2 14.9505 53.2C21.1329 53.2 26.1446 48.1856 26.1446 42V30.8H3.75631ZM31.7417 25.2V2.8H42.9359C49.1183 2.8 54.1301 7.81441 54.1301 14C54.1301 20.1856 49.1183 25.2 42.9359 25.2H31.7417Z" fill="#5417D7"/>
</svg>
