<svg width="65" height="48" viewBox="0 0 65 48" fill="none" xmlns="http://www.w3.org/2000/svg">
<path d="M14.1346 41.05H50.8654C53.5533 41.05 56.131 39.9822 58.0316 38.0816C59.9322 36.181 61 33.6033 61 30.9154V23.95C61 22.4383 60.3995 20.9884 59.3305 19.9195C58.2615 18.8505 56.8117 18.25 55.3 18.25C53.7883 18.25 52.3384 18.8505 51.2695 19.9195C50.2005 20.9884 49.6 22.4383 49.6 23.95V27.37C49.6 27.9747 49.3598 28.5546 48.9322 28.9822C48.5046 29.4098 47.9247 29.65 47.32 29.65H17.68C17.0753 29.65 16.4954 29.4098 16.0678 28.9822C15.6402 28.5546 15.4 27.9747 15.4 27.37V23.95C15.4 22.4383 14.7995 20.9884 13.7305 19.9195C12.6616 18.8505 11.2117 18.25 9.7 18.25C8.18827 18.25 6.73845 18.8505 5.66949 19.9195C4.60053 20.9884 4 22.4383 4 23.95V30.9154C4 33.6033 5.06775 36.181 6.96836 38.0816C8.86896 39.9822 11.4467 41.05 14.1346 41.05Z" stroke="#5417D7" stroke-width="7"/>
<path d="M55.2999 18.25C55.2999 15.5995 55.3 14.2771 55.0805 13.177C54.6407 10.9654 53.5549 8.93394 51.9605 7.33949C50.366 5.74504 48.3345 4.65925 46.123 4.21945C45.0229 4 43.7005 4 41.05 4H23.95C21.2995 4 19.9771 4 18.877 4.21945C16.6654 4.65925 14.6339 5.74504 13.0394 7.33949C11.445 8.93394 10.3592 10.9654 9.9194 13.177C9.69995 14.2771 9.69995 15.5995 9.69995 18.25" stroke="#5417D7" stroke-width="7"/>
<path d="M55.2999 43.9V41.05M9.69995 43.9V41.05" stroke="#5417D7" stroke-width="7" stroke-linecap="round"/>
</svg>
