<svg width="197" height="56" viewBox="0 0 197 56" fill="none" xmlns="http://www.w3.org/2000/svg">
<path fill-rule="evenodd" clip-rule="evenodd" d="M14.9505 0C22.6784 0 28.9432 6.26801 28.9432 14V0H42.9359C50.6638 0 56.9286 6.26801 56.9286 14C56.9286 21.7319 50.6638 28 42.9359 28C50.6638 28 56.9286 34.2681 56.9286 42C56.9286 45.8392 55.3839 49.3175 52.8826 51.8468L52.8303 51.8995L52.7838 51.9457C50.2553 54.452 46.7763 56 42.9359 56C39.1216 56 35.6637 54.473 33.1396 51.9967C33.1068 51.9645 33.0741 51.932 33.0415 51.8995C33.0109 51.8689 32.9804 51.8381 32.95 51.8071C30.4717 49.2813 28.9432 45.8192 28.9432 42C28.9432 49.7319 22.6784 56 14.9505 56C7.22251 56 0.957764 49.7319 0.957764 42V28H14.9505C7.22251 28 0.957764 21.7319 0.957764 14C0.957764 6.26801 7.22251 0 14.9505 0ZM26.1446 14C26.1446 20.1856 21.1329 25.2 14.9505 25.2V2.8C21.1329 2.8 26.1446 7.81441 26.1446 14ZM54.1301 42C54.1301 35.8144 49.1183 30.8 42.9359 30.8C36.7535 30.8 31.7417 35.8144 31.7417 42H54.1301ZM3.75631 30.8V42C3.75631 48.1856 8.7681 53.2 14.9505 53.2C21.1329 53.2 26.1446 48.1856 26.1446 42V30.8H3.75631ZM31.7417 25.2V2.8H42.9359C49.1183 2.8 54.1301 7.81441 54.1301 14C54.1301 20.1856 49.1183 25.2 42.9359 25.2H31.7417Z" fill="#5417D7"/>
<path d="M70.4016 19.025C70.4016 16.0403 70.7344 13.6723 71.4001 11.921C72.0904 10.1697 73.2615 8.91167 74.9133 8.147C76.5897 7.38233 78.9195 7 81.9026 7C84.1461 7 86.0075 7.20967 87.4867 7.629C88.9659 8.04833 90.137 8.72667 90.9999 9.664C91.8628 10.6013 92.4668 11.847 92.8119 13.401C93.1817 14.9303 93.3666 16.805 93.3666 19.025C93.3666 21.2943 93.1817 23.206 92.8119 24.76C92.4421 26.2893 91.8258 27.5227 90.9629 28.46C90.1 29.3973 88.9043 30.0757 87.3758 30.495V30.68C88.1154 31.494 88.781 32.3327 89.3727 33.196C89.9891 34.0593 90.5191 34.8857 90.9629 35.675V35.786H84.2324L81.6068 31.087C78.6976 31.0623 76.4295 30.6677 74.8023 29.903C73.1752 29.1137 72.0288 27.8433 71.3631 26.092C70.7221 24.3407 70.4016 21.985 70.4016 19.025ZM81.9026 25.907C83.4805 25.907 84.6638 25.7097 85.4528 25.315C86.2417 24.9203 86.7717 24.2297 87.0429 23.243C87.3141 22.2317 87.4497 20.8257 87.4497 19.025C87.4497 17.249 87.3141 15.8677 87.0429 14.881C86.7717 13.8943 86.2417 13.2037 85.4528 12.809C84.6638 12.3897 83.4805 12.18 81.9026 12.18C80.3494 12.18 79.166 12.3897 78.3525 12.809C77.5635 13.2037 77.0212 13.8943 76.7253 14.881C76.4541 15.8677 76.3185 17.249 76.3185 19.025C76.3185 20.8257 76.4541 22.2317 76.7253 23.243C77.0212 24.2297 77.5635 24.9203 78.3525 25.315C79.166 25.7097 80.3494 25.907 81.9026 25.907Z" fill="#5417D7"/>
<path d="M96.4794 24.723C97.5641 25.093 98.7475 25.389 100.03 25.611C101.336 25.8083 102.631 25.907 103.913 25.907C105.663 25.907 106.957 25.833 107.795 25.685C108.658 25.5123 109.225 25.2533 109.497 24.908C109.768 24.5627 109.903 24.1187 109.903 23.576C109.903 23.1073 109.805 22.7373 109.608 22.466C109.41 22.1947 109.028 21.985 108.461 21.837C107.894 21.6643 107.056 21.5287 105.946 21.43L103.506 21.208C101.681 21.0353 100.239 20.653 99.179 20.061C98.1435 19.469 97.4039 18.6797 96.9601 17.693C96.541 16.6817 96.3315 15.473 96.3315 14.067C96.3315 12.3897 96.6643 11.033 97.3299 9.997C98.0202 8.961 99.1297 8.20867 100.658 7.74C102.187 7.24667 104.221 7 106.76 7C110.064 7 112.788 7.43167 114.933 8.295L114.822 13.327L114.711 13.475C112.27 12.6117 109.718 12.18 107.056 12.18C105.774 12.18 104.788 12.254 104.097 12.402C103.407 12.5253 102.926 12.735 102.655 13.031C102.384 13.327 102.248 13.7463 102.248 14.289C102.248 14.8317 102.335 15.2387 102.507 15.51C102.704 15.7813 103.087 15.991 103.654 16.139C104.221 16.2623 105.047 16.3857 106.131 16.509L108.461 16.768C110.433 16.99 111.95 17.3847 113.01 17.952C114.07 18.5193 114.797 19.284 115.192 20.246C115.611 21.1833 115.82 22.3303 115.82 23.687C115.82 25.3397 115.463 26.721 114.748 27.831C114.058 28.9163 112.923 29.7303 111.346 30.273C109.768 30.8157 107.66 31.087 105.022 31.087C103.296 31.087 101.743 31.0007 100.362 30.828C98.9817 30.6307 97.6381 30.3717 96.3315 30.051V24.834L96.4794 24.723Z" fill="#5417D7"/>
<path d="M125.451 37.636H119.534V12.735H125.155L125.451 15.288V15.51H125.525C125.944 14.4987 126.536 13.7587 127.3 13.29C128.089 12.7967 129.223 12.55 130.702 12.55C133.094 12.55 134.844 13.253 135.953 14.659C137.087 16.0403 137.667 18.137 137.692 20.949C137.741 23.4403 137.482 25.4383 136.915 26.943C136.373 28.423 135.522 29.4837 134.363 30.125C133.205 30.7663 131.725 31.087 129.926 31.087C128.989 31.087 128.138 31.0007 127.374 30.828C126.634 30.6553 126.018 30.4457 125.525 30.199L125.451 30.236V37.636ZM128.779 17.582C127.793 17.582 126.992 17.8903 126.375 18.507C125.759 19.099 125.451 20.1227 125.451 21.578V25.463C126.363 25.833 127.436 26.018 128.668 26.018C129.827 26.018 130.653 25.7467 131.146 25.204C131.664 24.6367 131.923 23.5143 131.923 21.837C131.923 20.3817 131.725 19.3087 131.331 18.618C130.936 17.9273 130.086 17.582 128.779 17.582Z" fill="#5417D7"/>
<path d="M147.683 12.55C150.049 12.55 151.96 12.7967 153.415 13.29C154.869 13.7833 155.929 14.696 156.595 16.028C157.285 17.3353 157.63 19.2347 157.63 21.726V30.754H152.268L152.083 29.052H151.972C151.504 29.6687 150.777 30.162 149.791 30.532C148.804 30.902 147.522 31.087 145.945 31.087C141.679 31.087 139.547 29.089 139.547 25.093C139.547 23.391 140.102 22.059 141.211 21.097C142.345 20.1103 144.12 19.617 146.536 19.617H152.009C151.837 18.581 151.393 17.8903 150.678 17.545C149.963 17.175 148.743 16.99 147.017 16.99C145.932 16.99 144.86 17.0763 143.8 17.249C142.764 17.397 141.852 17.5697 141.063 17.767L140.952 17.693L140.989 13.401C141.482 13.253 142.111 13.1173 142.875 12.994C143.639 12.846 144.441 12.735 145.279 12.661C146.142 12.587 146.943 12.55 147.683 12.55ZM147.461 26.721C148.989 26.721 150.136 26.536 150.9 26.166C151.664 25.7713 152.059 25.1547 152.083 24.316V23.391H147.905C146.82 23.391 146.056 23.5513 145.612 23.872C145.193 24.168 144.983 24.575 144.983 25.093C144.983 25.7097 145.205 26.1413 145.649 26.388C146.092 26.61 146.697 26.721 147.461 26.721Z" fill="#5417D7"/>
<path d="M175.514 25.537V30.347C174.898 30.5937 173.986 30.7787 172.778 30.902C171.57 31.0253 170.288 31.087 168.932 31.087C166.984 31.087 165.357 30.8157 164.05 30.273C162.768 29.7303 161.807 28.793 161.166 27.461C160.549 26.129 160.229 24.279 160.204 21.911C160.204 19.469 160.537 17.5697 161.203 16.213C161.893 14.8563 162.891 13.9067 164.198 13.364C165.505 12.8213 167.07 12.55 168.895 12.55C169.979 12.55 171.126 12.624 172.334 12.772C173.542 12.92 174.528 13.1173 175.292 13.364L175.329 18.322L175.218 18.396C174.479 18.248 173.69 18.137 172.852 18.063C172.013 17.989 171.187 17.952 170.374 17.952C168.722 17.952 167.576 18.2603 166.935 18.877C166.294 19.4937 165.973 20.5297 165.973 21.985C165.973 23.095 166.109 23.9213 166.38 24.464C166.651 25.0067 167.107 25.3643 167.748 25.537C168.389 25.7097 169.264 25.796 170.374 25.796C171.237 25.796 172.063 25.759 172.852 25.685C173.64 25.611 174.479 25.5247 175.366 25.426L175.514 25.537Z" fill="#5417D7"/>
<path d="M194.698 30.162C194.008 30.4087 193.046 30.6307 191.813 30.828C190.605 31.0007 189.163 31.087 187.487 31.087C185.366 31.087 183.554 30.8157 182.05 30.273C180.571 29.7057 179.45 28.756 178.685 27.424C177.921 26.0673 177.539 24.1927 177.539 21.8C177.539 18.544 178.278 16.1883 179.758 14.733C181.262 13.2777 183.579 12.55 186.71 12.55C188.954 12.55 190.716 12.8707 191.998 13.512C193.305 14.1533 194.229 15.066 194.772 16.25C195.339 17.4093 195.622 18.7907 195.622 20.394C195.622 20.8627 195.598 21.3683 195.548 21.911C195.524 22.4537 195.462 22.984 195.364 23.502L195.216 23.65H183.049C183.222 24.7353 183.727 25.4507 184.565 25.796C185.428 26.1413 186.821 26.314 188.744 26.314C190.026 26.314 191.086 26.2893 191.924 26.24C192.787 26.166 193.662 26.0673 194.55 25.944L194.698 26.055V30.162ZM190.482 19.765C190.482 19.173 190.383 18.6673 190.186 18.248C190.014 17.804 189.656 17.471 189.114 17.249C188.571 17.0023 187.77 16.879 186.71 16.879C185.157 16.879 184.134 17.1503 183.641 17.693C183.172 18.211 182.938 18.9017 182.938 19.765H190.482Z" fill="#5417D7"/>
<path d="M74.9769 49.087C74.0031 49.087 73.1344 48.8832 72.3706 48.4757C71.6117 48.0637 71.0126 47.4844 70.5734 46.7381C70.1391 45.9872 69.9219 45.1035 69.9219 44.087C69.9219 43.0705 70.1415 42.1891 70.5806 41.4428C71.0245 40.6919 71.6308 40.1126 72.3993 39.7051C73.1726 39.293 74.0509 39.087 75.0342 39.087C75.545 39.087 76.0318 39.1397 76.4949 39.245C76.9579 39.3503 77.3636 39.4854 77.7121 39.6502L77.5689 40.859C77.2109 40.6941 76.8171 40.5545 76.3875 40.44C75.9579 40.3256 75.502 40.2683 75.0199 40.2683C74.2323 40.2683 73.5712 40.44 73.0365 40.7834C72.5019 41.1223 72.0962 41.5801 71.8193 42.1571C71.5472 42.734 71.4112 43.3773 71.4112 44.087C71.4112 44.7967 71.5448 45.44 71.8121 46.0169C72.0842 46.5939 72.4852 47.054 73.015 47.3974C73.5497 47.7363 74.2084 47.9057 74.9912 47.9057C75.4877 47.9057 75.9459 47.8553 76.366 47.7546C76.7908 47.6493 77.1918 47.5073 77.5689 47.3288L77.7121 48.5376C77.3541 48.6932 76.9507 48.8237 76.502 48.929C76.0533 49.0343 75.545 49.087 74.9769 49.087Z" fill="#5417D7"/>
<path d="M83.5052 49.087C82.5505 49.087 81.7008 48.8832 80.9562 48.4757C80.2115 48.0637 79.6268 47.4844 79.202 46.7381C78.7771 45.9872 78.5647 45.1035 78.5647 44.087C78.5647 43.0705 78.7771 42.1891 79.202 41.4428C79.6268 40.6919 80.2115 40.1126 80.9562 39.7051C81.7008 39.293 82.5505 39.087 83.5052 39.087C84.4599 39.087 85.3095 39.293 86.0542 39.7051C86.7988 40.1126 87.3836 40.6919 87.8084 41.4428C88.2333 42.1891 88.4457 43.0705 88.4457 44.087C88.4457 45.1035 88.2333 45.9872 87.8084 46.7381C87.3836 47.4844 86.7988 48.0637 86.0542 48.4757C85.3095 48.8832 84.4599 49.087 83.5052 49.087ZM83.5052 47.8233C84.2737 47.8233 84.9157 47.6584 85.4313 47.3288C85.9468 46.9945 86.3334 46.5458 86.5912 45.9826C86.8537 45.4148 86.985 44.783 86.985 44.087C86.985 43.391 86.8537 42.7615 86.5912 42.1983C86.3334 41.6305 85.9468 41.1818 85.4313 40.8521C84.9157 40.5179 84.2737 40.3507 83.5052 40.3507C82.7367 40.3507 82.0946 40.5179 81.5791 40.8521C81.0636 41.1818 80.6746 41.6305 80.412 42.1983C80.1542 42.7615 80.0254 43.391 80.0254 44.087C80.0254 44.783 80.1542 45.4148 80.412 45.9826C80.6746 46.5458 81.0636 46.9945 81.5791 47.3288C82.0946 47.6584 82.7367 47.8233 83.5052 47.8233Z" fill="#5417D7"/>
<path d="M89.828 45.2134V44.0321H94.2673V45.2134H89.828Z" fill="#5417D7"/>
<path d="M97.8619 48.8947L95.0265 39.2793H96.4585L98.5779 47.2051L101.027 39.4716H102.459L104.907 47.2051L107.027 39.2793H108.459L105.623 48.8947H104.177L101.743 41.1612L99.3082 48.8947H97.8619Z" fill="#5417D7"/>
<path d="M113.936 49.087C112.981 49.087 112.131 48.8832 111.387 48.4757C110.642 48.0637 110.057 47.4844 109.632 46.7381C109.208 45.9872 108.995 45.1035 108.995 44.087C108.995 43.0705 109.208 42.1891 109.632 41.4428C110.057 40.6919 110.642 40.1126 111.387 39.7051C112.131 39.293 112.981 39.087 113.936 39.087C114.89 39.087 115.74 39.293 116.485 39.7051C117.229 40.1126 117.814 40.6919 118.239 41.4428C118.664 42.1891 118.876 43.0705 118.876 44.087C118.876 45.1035 118.664 45.9872 118.239 46.7381C117.814 47.4844 117.229 48.0637 116.485 48.4757C115.74 48.8832 114.89 49.087 113.936 49.087ZM113.936 47.8233C114.704 47.8233 115.346 47.6584 115.862 47.3288C116.377 46.9945 116.764 46.5458 117.022 45.9826C117.284 45.4148 117.416 44.783 117.416 44.087C117.416 43.391 117.284 42.7615 117.022 42.1983C116.764 41.6305 116.377 41.1818 115.862 40.8521C115.346 40.5179 114.704 40.3507 113.936 40.3507C113.167 40.3507 112.525 40.5179 112.01 40.8521C111.494 41.1818 111.105 41.6305 110.843 42.1983C110.585 42.7615 110.456 43.391 110.456 44.087C110.456 44.783 110.585 45.4148 110.843 45.9826C111.105 46.5458 111.494 46.9945 112.01 47.3288C112.525 47.6584 113.167 47.8233 113.936 47.8233Z" fill="#5417D7"/>
<path d="M120.588 48.8947V39.2793H123.839C124.536 39.2793 125.144 39.3823 125.664 39.5884C126.185 39.7944 126.588 40.1126 126.874 40.543C127.161 40.9734 127.304 41.5275 127.304 42.2051C127.304 42.8645 127.154 43.4162 126.853 43.8604C126.557 44.3045 126.125 44.6548 125.557 44.9112L127.805 48.8947H126.144L124.111 45.1447C124.096 45.1447 124.084 45.1447 124.075 45.1447C124.065 45.1447 124.053 45.1447 124.039 45.1447H122.02V48.8947H120.588ZM122.02 43.9771H123.824C124.507 43.9771 125.02 43.8191 125.364 43.5032C125.712 43.1873 125.886 42.7546 125.886 42.2051C125.886 41.6465 125.712 41.2138 125.364 40.9071C125.02 40.6003 124.507 40.4469 123.824 40.4469H122.02V43.9771Z" fill="#5417D7"/>
<path d="M134.429 48.8947L130.72 43.7985L134.429 39.2793H136.076L132.267 43.7711L136.119 48.8947H134.429ZM129.216 48.8947V39.2793H130.577V48.8947H129.216Z" fill="#5417D7"/>
<path d="M137.327 48.8947V39.2793H138.688V48.8947H137.327Z" fill="#5417D7"/>
<path d="M140.977 48.8947V39.2793H142.452L147.393 46.4771V39.2793H148.768V48.8947H147.608L142.338 41.2985V48.8947H140.977Z" fill="#5417D7"/>
<path d="M155.385 49.087C154.459 49.087 153.624 48.8832 152.879 48.4757C152.139 48.0637 151.552 47.4821 151.118 46.7312C150.688 45.9803 150.473 45.0943 150.473 44.0733C150.473 43.0614 150.695 42.1822 151.139 41.4359C151.588 40.6896 152.201 40.1126 152.979 39.7051C153.762 39.293 154.655 39.087 155.657 39.087C156.197 39.087 156.71 39.1419 157.197 39.2518C157.688 39.3571 158.115 39.4854 158.478 39.6365L158.349 40.7766C157.958 40.63 157.543 40.5087 157.104 40.4126C156.664 40.3164 156.197 40.2683 155.7 40.2683C154.846 40.2683 154.142 40.44 153.588 40.7834C153.039 41.1223 152.631 41.5801 152.364 42.1571C152.096 42.734 151.963 43.3773 151.963 44.087C151.963 44.8196 152.099 45.4744 152.371 46.0513C152.643 46.6236 153.06 47.0769 153.624 47.4112C154.187 47.7408 154.903 47.9057 155.772 47.9057C155.987 47.9057 156.254 47.8874 156.574 47.8507C156.893 47.8141 157.185 47.7454 157.447 47.6447V45.2546H155.872V44.0733H158.808V48.359C158.416 48.565 157.929 48.739 157.347 48.881C156.765 49.0183 156.111 49.087 155.385 49.087Z" fill="#5417D7"/>
<path d="M169.311 46.2985H165.015V45.1172H169.311V46.2985ZM166.963 40.5568H167.364L164.285 48.8947H162.853L166.447 39.2793H167.879L171.474 48.8947H170.042L166.963 40.5568Z" fill="#5417D7"/>
<path d="M172.723 48.8947V39.2793H175.973C176.67 39.2793 177.279 39.3823 177.799 39.5884C178.319 39.7944 178.723 40.1126 179.009 40.543C179.296 40.9734 179.439 41.5275 179.439 42.2051C179.439 42.8645 179.288 43.4162 178.988 43.8604C178.692 44.3045 178.26 44.6548 177.692 44.9112L179.94 48.8947H178.279L176.245 45.1447C176.231 45.1447 176.219 45.1447 176.21 45.1447C176.2 45.1447 176.188 45.1447 176.174 45.1447H174.155V48.8947H172.723ZM174.155 43.9771H175.959C176.642 43.9771 177.155 43.8191 177.498 43.5032C177.847 43.1873 178.021 42.7546 178.021 42.2051C178.021 41.6465 177.847 41.2138 177.498 40.9071C177.155 40.6003 176.642 40.4469 175.959 40.4469H174.155V43.9771Z" fill="#5417D7"/>
<path d="M181.351 48.8947V39.2793H187.466V40.4606H182.711V43.2766H186.492V44.4579H182.711V47.7134H187.595V48.8947H181.351Z" fill="#5417D7"/>
<path d="M194.693 46.2985H190.397V45.1172H194.693V46.2985ZM192.345 40.5568H192.746L189.667 48.8947H188.235L191.829 39.2793H193.261L196.856 48.8947H195.424L192.345 40.5568Z" fill="#5417D7"/>
</svg>
