<svg width="67" height="73" viewBox="0 0 67 73" fill="none" xmlns="http://www.w3.org/2000/svg">
<path d="M24.0253 18.439C22.2038 18.439 20.7271 20.0486 20.7271 22.0341C20.7271 24.0196 22.2038 25.6292 24.0253 25.6292H27.3236C29.1452 25.6292 30.6219 24.0196 30.6219 22.0341C30.6219 20.0486 29.1452 18.439 27.3236 18.439H24.0253Z" fill="#5417D7"/>
<path d="M40.5168 18.439C38.6952 18.439 37.2185 20.0486 37.2185 22.0341C37.2185 24.0196 38.6952 25.6292 40.5168 25.6292H43.815C45.6366 25.6292 47.1133 24.0196 47.1133 22.0341C47.1133 20.0486 45.6366 18.439 43.815 18.439H40.5168Z" fill="#5417D7"/>
<path d="M24.0253 32.8195C22.2038 32.8195 20.7271 34.4291 20.7271 36.4146C20.7271 38.4001 22.2038 40.0097 24.0253 40.0097H27.3236C29.1452 40.0097 30.6219 38.4001 30.6219 36.4146C30.6219 34.4291 29.1452 32.8195 27.3236 32.8195H24.0253Z" fill="#5417D7"/>
<path d="M40.5168 32.8195C38.6952 32.8195 37.2185 34.4291 37.2185 36.4146C37.2185 38.4001 38.6952 40.0097 40.5168 40.0097H43.815C45.6366 40.0097 47.1133 38.4001 47.1133 36.4146C47.1133 34.4291 45.6366 32.8195 43.815 32.8195H40.5168Z" fill="#5417D7"/>
<path d="M24.0253 47.2C22.2038 47.2 20.7271 48.8096 20.7271 50.7951C20.7271 52.7806 22.2038 54.3902 24.0253 54.3902H27.3236C29.1452 54.3902 30.6219 52.7806 30.6219 50.7951C30.6219 48.8096 29.1452 47.2 27.3236 47.2H24.0253Z" fill="#5417D7"/>
<path d="M40.5168 47.2C38.6952 47.2 37.2185 48.8096 37.2185 50.7951C37.2185 52.7806 38.6952 54.3902 40.5168 54.3902H43.815C45.6366 54.3902 47.1133 52.7806 47.1133 50.7951C47.1133 48.8096 45.6366 47.2 43.815 47.2H40.5168Z" fill="#5417D7"/>
<path fill-rule="evenodd" clip-rule="evenodd" d="M57.4083 3.62234C59.264 5.64499 60.3064 8.38829 60.3064 11.2487V65.1756H63.6047C65.4263 65.1756 66.903 66.7852 66.903 68.7707C66.903 70.7562 65.4263 72.3658 63.6047 72.3658H4.23566C2.41407 72.3658 0.937378 70.7562 0.937378 68.7707C0.937378 66.7852 2.41407 65.1756 4.23566 65.1756H7.53394V11.2487C7.53394 8.38829 8.57643 5.64499 10.4321 3.62234C12.2877 1.59969 14.8045 0.463379 17.4288 0.463379H50.4116C53.0359 0.463379 55.5527 1.59969 57.4083 3.62234ZM15.0965 8.70661C15.7151 8.03239 16.554 7.65362 17.4288 7.65362H50.4116C51.2864 7.65362 52.1253 8.03239 52.7438 8.70661C53.3624 9.38083 53.7099 10.2953 53.7099 11.2487V65.1756H14.1305V11.2487C14.1305 10.2953 14.478 9.38083 15.0965 8.70661Z" fill="#5417D7"/>
</svg>
