<svg width="66" height="66" viewBox="0 0 66 66" fill="none" xmlns="http://www.w3.org/2000/svg">
<path d="M54.9002 57.5934C55.1488 57.6999 55.417 57.7533 55.6875 57.75C56.1825 57.75 56.7188 57.5438 57.1313 57.1313C57.9562 56.3063 57.9562 55.0275 57.1313 54.2025L53.625 50.6963V45.375C53.625 44.22 52.7175 43.3125 51.5625 43.3125C50.4075 43.3125 49.5 44.22 49.5 45.375V51.5625C49.5078 52.1065 49.7301 52.6255 50.1187 53.0063L54.2437 57.1313C54.4279 57.3294 54.6515 57.4868 54.9002 57.5934Z" fill="#5417D7"/>
<path fill-rule="evenodd" clip-rule="evenodd" d="M18.5625 2.0625V3.62952H39.6825V2.0625C39.6825 0.9075 40.59 0 41.745 0C42.9 0 43.8075 0.9075 43.8075 2.0625V3.62952H51.5625C54.9862 3.62952 57.75 6.39327 57.75 9.81702V38.519C62.6237 40.8401 66 45.8142 66 51.5625C66 59.5238 59.5238 66 51.5625 66C45.814 66 40.8398 62.6235 38.5188 57.7495H6.1875C2.76375 57.7495 0 54.9858 0 51.562V9.81702C0 6.39327 2.76375 3.62952 6.1875 3.62952H14.4375V2.0625C14.4375 0.9075 15.345 0 16.5 0C17.655 0 18.5625 0.9075 18.5625 2.0625ZM16.5 14.9325C15.345 14.9325 14.4375 14.025 14.4375 12.87V7.75452H6.1875C5.0325 7.75452 4.125 8.66202 4.125 9.81702V20.625H53.625V9.81702C53.625 8.66202 52.7175 7.75452 51.5625 7.75452H43.8075V12.87C43.8075 14.025 42.9 14.9325 41.745 14.9325C40.59 14.9325 39.6825 14.025 39.6825 12.87V7.75452H18.5625V12.87C18.5625 14.025 17.655 14.9325 16.5 14.9325ZM4.125 24.75H53.625V37.2719C52.9512 37.1751 52.2626 37.125 51.5625 37.125C43.6012 37.125 37.125 43.6012 37.125 51.5625C37.125 52.2624 37.1751 52.9509 37.2718 53.6245H6.1875C5.0325 53.6245 4.125 52.717 4.125 51.562V24.75ZM51.5625 41.25C48.8275 41.25 46.2044 42.3365 44.2705 44.2705C42.3365 46.2044 41.25 48.8275 41.25 51.5625C41.25 54.2975 42.3365 56.9206 44.2705 58.8545C46.2044 60.7885 48.8275 61.875 51.5625 61.875C54.2975 61.875 56.9206 60.7885 58.8545 58.8545C60.7885 56.9206 61.875 54.2975 61.875 51.5625C61.875 48.8275 60.7885 46.2044 58.8545 44.2705C56.9206 42.3365 54.2975 41.25 51.5625 41.25Z" fill="#5417D7"/>
</svg>
