<svg width="68" height="69" viewBox="0 0 68 69" fill="none" xmlns="http://www.w3.org/2000/svg">
<path d="M15.1304 38.9574H52.8696M34 38.9574V69M19.1739 32.0426V19.5957H16.0146C14.2194 19.5958 12.4752 20.2087 11.0569 21.338C9.63863 22.4672 8.62686 24.0486 8.18104 25.833L3 46.5638V47.2553H21.8696V51.4043C21.8696 55.5532 21.8696 58.3191 23.8913 62.4681C23.8913 62.4681 25.8043 65.5 28.5 65.5M48.8261 32.0426V19.5957H51.9854C53.7806 19.5958 55.5248 20.2087 56.9431 21.338C58.3614 22.4672 59.3731 24.0486 59.819 25.833L65 46.5638V47.2553H46.1304V51.4043C46.1304 55.5532 46.1304 58.3191 44.1087 62.4681C44.1087 62.4681 42.6957 65.5 40 65.5M18.7696 14.0638C18.7696 14.0638 14.4565 11.2979 14.4565 7.84043C14.4565 6.55813 14.953 5.32836 15.8366 4.42164C16.7203 3.51492 17.9188 3.00553 19.1685 3.00553C20.4182 3.00553 21.6167 3.51492 22.5004 4.42164C23.3841 5.32836 23.8805 6.55813 23.8805 7.84043C23.8805 11.2979 19.5783 14.0638 19.5783 14.0638H18.7696ZM49.2304 14.0638C49.2304 14.0638 53.5435 11.2979 53.5435 7.84043C53.5435 6.55666 53.0465 5.32548 52.1618 4.41773C51.2771 3.50997 50.0772 3 48.8261 3C46.2221 3 44.1195 5.16851 44.1195 7.84043C44.1195 11.2979 48.4217 14.0638 48.4217 14.0638H49.2304Z" stroke="#5417D7" stroke-width="6"/>
</svg>
