<svg width="66" height="64" viewBox="0 0 66 64" fill="none" xmlns="http://www.w3.org/2000/svg">
<path d="M3.47368 64V48.8889L49.2395 2.13333C49.9342 1.42222 50.7158 0.888889 51.5842 0.533333C52.4526 0.177778 53.3211 0 54.1895 0C55.1158 0 55.9993 0.177778 56.8399 0.533333C57.6805 0.888889 58.4181 1.42222 59.0526 2.13333L63.9158 7.11111C64.6105 7.76296 65.1316 8.5191 65.479 9.37955C65.8263 10.24 66 11.1431 66 12.0889C66 12.9778 65.8263 13.8667 65.479 14.7555C65.1316 15.6444 64.6105 16.4444 63.9158 17.1555L18.2368 64H3.47368ZM10.4211 56.8888H15.2842L49.4132 22.0444L46.9816 19.4667L44.4632 16.9778L10.4211 51.9111V56.8888ZM46.9816 19.4667L44.4632 16.9778L49.4132 22.0444L46.9816 19.4667ZM38.2105 64C42.4947 64 46.4605 62.9037 50.1079 60.7111C53.7553 58.5185 55.5789 55.4666 55.5789 51.5555C55.5789 49.4222 55.0289 47.5852 53.9289 46.0444C52.8289 44.5037 51.3526 43.1703 49.5 42.0444L44.3763 47.2889C45.7079 47.8814 46.75 48.5333 47.5026 49.2444C48.2553 49.9555 48.6316 50.7259 48.6316 51.5555C48.6316 52.9185 47.5744 54.1487 45.4601 55.2462C43.3458 56.3437 40.9293 56.8912 38.2105 56.8888C37.2263 56.8888 36.4019 57.2302 35.7373 57.9128C35.0726 58.5955 34.7392 59.4394 34.7368 60.4444C34.7345 61.4494 35.068 62.2945 35.7373 62.9795C36.4065 63.6645 37.2309 64.0047 38.2105 64ZM5.47105 36.8L10.6816 31.4666C9.52368 30.9926 8.61126 30.5043 7.94432 30.0018C7.27737 29.4992 6.94505 28.9801 6.94737 28.4444C6.94737 27.7333 7.46842 27.0222 8.51053 26.3111C9.55263 25.6 11.7526 24.5037 15.1105 23.0222C20.2053 20.7704 23.5921 18.7259 25.2711 16.8889C26.95 15.0518 27.7895 12.9778 27.7895 10.6667C27.7895 7.4074 26.5158 4.8154 23.9684 2.89066C21.4211 0.965925 18.0632 0.00237037 13.8947 0C11.2895 0 8.95863 0.474074 6.90221 1.42222C4.84579 2.37037 3.26874 3.52592 2.17105 4.88889C1.53421 5.65926 1.27368 6.51851 1.38947 7.46666C1.50526 8.41481 1.93947 9.18518 2.69211 9.77777C3.44474 10.4296 4.28421 10.6963 5.21053 10.5778C6.13684 10.4593 6.91842 10.0741 7.55526 9.42222C8.36579 8.59259 9.26316 7.99999 10.2474 7.64444C11.2316 7.28888 12.4474 7.11111 13.8947 7.11111C16.2684 7.11111 18.0203 7.46666 19.1504 8.17777C20.2805 8.88888 20.8444 9.71851 20.8421 10.6667C20.8421 11.4963 20.3361 12.2513 19.3241 12.9315C18.3121 13.6118 15.9813 14.8124 12.3316 16.5333C7.7 18.6074 4.48684 20.4895 2.69211 22.1795C0.897369 23.8696 0 25.9579 0 28.4444C0 30.3407 0.492105 31.9561 1.47632 33.2906C2.46053 34.6252 3.7921 35.7949 5.47105 36.8Z" fill="#5417D7"/>
</svg>
