<svg width="66" height="48" viewBox="0 0 66 48" fill="none" xmlns="http://www.w3.org/2000/svg">
<path d="M33 48C30.9695 48 29.2532 47.3176 27.8511 45.9529C26.4491 44.5882 25.7481 42.9176 25.7481 40.9412C25.7481 38.9647 26.4491 37.2941 27.8511 35.9294C29.2532 34.5647 30.9695 33.8824 33 33.8824C35.0305 33.8824 36.7468 34.5647 38.1489 35.9294C39.5509 37.2941 40.2519 38.9647 40.2519 40.9412C40.2519 42.9176 39.5509 44.5882 38.1489 45.9529C36.7468 47.3176 35.0305 48 33 48ZM33 16.9412C36.626 16.9412 40.0711 17.5059 43.3354 18.6353C46.5997 19.7647 49.5605 21.3176 52.2176 23.2941C53.1845 24 53.6805 24.9299 53.7057 26.0838C53.7308 27.2376 53.3073 28.2372 52.4351 29.0824C51.6132 29.8824 50.598 30.2946 49.3893 30.3191C48.1807 30.3435 47.0929 30.0254 46.126 29.3647C44.2888 28.1412 42.2583 27.1765 40.0344 26.4706C37.8104 25.7647 35.4656 25.4118 33 25.4118C30.5344 25.4118 28.1896 25.7647 25.9656 26.4706C23.7417 27.1765 21.7112 28.1412 19.874 29.3647C18.9071 30.0235 17.8193 30.3294 16.6107 30.2824C15.402 30.2353 14.3868 29.8118 13.5649 29.0118C12.743 28.1647 12.3321 27.1652 12.3321 26.0132C12.3321 24.8612 12.8155 23.9313 13.7824 23.2235C16.4415 21.2471 19.4032 19.7054 22.6675 18.5986C25.9318 17.4918 29.376 16.9393 33 16.9412ZM33 0C39.0433 0 44.7365 0.964706 50.0797 2.89412C55.4229 4.82353 60.2208 7.55294 64.4733 11.0824C65.4402 11.8824 65.9478 12.8706 65.9962 14.0471C66.0445 15.2235 65.6336 16.2353 64.7634 17.0824C63.9415 17.8824 62.9262 18.2946 61.7176 18.3191C60.5089 18.3435 59.4211 17.9784 58.4542 17.2235C54.9733 14.4471 51.0698 12.2946 46.7438 10.7661C42.4178 9.23765 37.8365 8.47247 33 8.47059C28.1635 8.46871 23.5832 9.23388 19.2591 10.7661C14.935 12.2984 11.0306 14.4508 7.5458 17.2235C6.57888 17.9765 5.49109 18.3416 4.28244 18.3191C3.07379 18.2965 2.05852 17.8842 1.23664 17.0824C0.366412 16.2353 -0.0445293 15.2235 0.0038168 14.0471C0.0521629 12.8706 0.559796 11.8824 1.52672 11.0824C5.78117 7.55294 10.58 4.82353 15.9232 2.89412C21.2664 0.964706 26.9587 0 33 0Z" fill="#5417D7"/>
</svg>
