<svg width="80" height="80" viewBox="0 0 80 80" fill="none" xmlns="http://www.w3.org/2000/svg">
<path d="M76 40H4M67.954 40L70.15 33.9736C71.806 29.4268 72.634 27.1552 72.3424 25.1284C72.1398 23.6795 71.5306 22.3177 70.5856 21.2008C69.3076 19.7068 67.162 19.0336 62.8708 17.6872M62.8708 17.6872C62.8708 18.8428 62.8708 19.4224 62.734 19.93C62.536 20.6788 62.1292 21.334 61.5712 21.8164C61.1896 22.144 60.7 22.3564 59.7244 22.7884L58.8172 23.1844C56.9272 24.0124 55.984 24.43 55.282 24.0124C55.1873 23.9547 55.0981 23.8885 55.0156 23.8144C54.4 23.2564 54.4 22.1368 54.4 19.9012V15.4732C54.4 13.2412 54.4 12.1252 55.012 11.5636C55.0957 11.4894 55.186 11.4231 55.282 11.3656C55.984 10.9444 56.9272 11.362 58.8172 12.1936L59.7244 12.5896C60.7 13.018 61.1896 13.2304 61.5712 13.5616C62.1292 14.0404 62.536 14.6992 62.734 15.4444C62.8708 15.9556 62.8708 16.5352 62.8708 17.6872ZM68.8 58H54.4C47.6104 58 44.2192 58 42.1096 55.8904C40 53.7808 40 50.3896 40 43.6V40M68.8 58V40M68.8 58V76M11.2 40V76M31 29.2L32.8 40M20.2 29.2L18.4 40M7.6 18.4V14.8C7.6 9.7096 7.6 7.1644 9.184 5.584C10.7608 4 13.306 4 18.4 4H32.8C37.8904 4 40.4356 4 42.016 5.584C43.6 7.1608 43.6 9.706 43.6 14.8V18.4C43.6 23.4904 43.6 26.0356 42.016 27.616C40.4392 29.2 37.894 29.2 32.8 29.2H18.4C13.3096 29.2 10.7644 29.2 9.184 27.616C7.6 26.0392 7.6 23.494 7.6 18.4Z" stroke="#5417D7" stroke-width="7" stroke-linecap="round" stroke-linejoin="round"/>
</svg>
